<?xml version="1.0" standalone="no"?>
<!DOCTYPE svg PUBLIC "-//W3C//DTD SVG 20010904//EN"
 "http://www.w3.org/TR/2001/REC-SVG-20010904/DTD/svg10.dtd">
<svg version="1.0" xmlns="http://www.w3.org/2000/svg"
 width="255.000000pt" height="255.000000pt" viewBox="0 0 255.000000 255.000000"
 preserveAspectRatio="xMidYMid meet">

<g transform="translate(0.000000,255.000000) scale(0.100000,-0.100000)"
fill="#000000" stroke="none">
<path d="M1126 2460 c-83 -15 -78 -5 -75 -148 4 -120 6 -131 36 -192 18 -36
51 -84 75 -107 27 -26 187 -124 428 -264 212 -122 443 -255 514 -296 87 -50
132 -71 138 -65 7 7 9 62 5 149 -4 110 -10 156 -31 227 -126 422 -512 710
-944 705 -54 -1 -119 -5 -146 -9z"/>
<path d="M800 2348 c-213 -123 -379 -324 -454 -549 -53 -162 -60 -391 -17
-554 40 -149 193 -415 239 -415 31 0 187 100 234 150 26 28 57 75 70 107 l23
58 0 615 c0 608 0 615 -20 617 -11 2 -45 -11 -75 -29z"/>
<path d="M1797 1339 c-52 -12 -44 -7 -614 -336 l-513 -296 0 -279 c0 -307 3
-324 59 -348 26 -11 36 -10 68 7 76 40 999 577 1042 606 79 54 191 169 248
254 51 78 123 228 123 258 0 19 -170 114 -233 131 -58 15 -123 16 -180 3z"/>
</g>
</svg>
